<?xml version="1.0"?>
<svg viewBox="0 0 132 78" data-gen="msa" xmlns="http://www.w3.org/2000/svg" width="264" height="156"><rect x="20" y="20" width="9" height="9" rx="1" fill="#2f8f4e"></rect><rect x="30.3" y="20" width="9" height="9" rx="1" fill="#2b6fb0"></rect><rect x="40.6" y="20" width="9" height="9" rx="1" fill="#c98a1a"></rect><rect x="50.900000000000006" y="20" width="9" height="9" rx="1" fill="#c0473a"></rect><rect x="61.2" y="20" width="9" height="9" rx="1" fill="#c98a1a"></rect><rect x="71.5" y="20" width="9" height="9" rx="1" fill="#2f8f4e"></rect><rect x="81.80000000000001" y="20" width="9" height="9" rx="1" fill="none" stroke="rgba(33,31,26,.28)" stroke-width="1"></rect><rect x="92.10000000000001" y="20" width="9" height="9" rx="1" fill="#2b6fb0"></rect><rect x="102.4" y="20" width="9" height="9" rx="1" fill="#c0473a"></rect><rect x="112.7" y="20" width="9" height="9" rx="1" fill="#2f8f4e"></rect><rect x="123" y="20" width="9" height="9" rx="1" fill="#c98a1a"></rect><rect x="20" y="30.3" width="9" height="9" rx="1" fill="#2f8f4e"></rect><rect x="30.3" y="30.3" width="9" height="9" rx="1" fill="#c98a1a"></rect><rect x="40.6" y="30.3" width="9" height="9" rx="1" fill="#c98a1a"></rect><rect x="50.900000000000006" y="30.3" width="9" height="9" rx="1" fill="#c0473a"></rect><rect x="61.2" y="30.3" width="9" height="9" rx="1" fill="#c98a1a"></rect><rect x="71.5" y="30.3" width="9" height="9" rx="1" fill="#2f8f4e"></rect><rect x="81.80000000000001" y="30.3" width="9" height="9" rx="1" fill="#2b6fb0"></rect><rect x="92.10000000000001" y="30.3" width="9" height="9" rx="1" fill="#2b6fb0"></rect><rect x="102.4" y="30.3" width="9" height="9" rx="1" fill="#c0473a"></rect><rect x="112.7" y="30.3" width="9" height="9" rx="1" fill="#2f8f4e"></rect><rect x="123" y="30.3" width="9" height="9" rx="1" fill="#c98a1a"></rect><rect x="20" y="40.6" width="9" height="9" rx="1" fill="#2f8f4e"></rect><rect x="30.3" y="40.6" width="9" height="9" rx="1" fill="#2b6fb0"></rect><rect x="40.6" y="40.6" width="9" height="9" rx="1" fill="#c98a1a"></rect><rect x="50.900000000000006" y="40.6" width="9" height="9" rx="1" fill="#c0473a"></rect><rect x="61.2" y="40.6" width="9" height="9" rx="1" fill="#c98a1a"></rect><rect x="71.5" y="40.6" width="9" height="9" rx="1" fill="#2f8f4e"></rect><rect x="81.80000000000001" y="40.6" width="9" height="9" rx="1" fill="none" stroke="rgba(33,31,26,.28)" stroke-width="1"></rect><rect x="92.10000000000001" y="40.6" width="9" height="9" rx="1" fill="#2b6fb0"></rect><rect x="102.4" y="40.6" width="9" height="9" rx="1" fill="#c0473a"></rect><rect x="112.7" y="40.6" width="9" height="9" rx="1" fill="#c98a1a"></rect><rect x="123" y="40.6" width="9" height="9" rx="1" fill="#c98a1a"></rect><rect x="20" y="50.900000000000006" width="9" height="9" rx="1" fill="#2f8f4e"></rect><rect x="30.3" y="50.900000000000006" width="9" height="9" rx="1" fill="#c0473a"></rect><rect x="40.6" y="50.900000000000006" width="9" height="9" rx="1" fill="#c98a1a"></rect><rect x="50.900000000000006" y="50.900000000000006" width="9" height="9" rx="1" fill="#c0473a"></rect><rect x="61.2" y="50.900000000000006" width="9" height="9" rx="1" fill="#c98a1a"></rect><rect x="71.5" y="50.900000000000006" width="9" height="9" rx="1" fill="#2f8f4e"></rect><rect x="81.80000000000001" y="50.900000000000006" width="9" height="9" rx="1" fill="#2b6fb0"></rect><rect x="92.10000000000001" y="50.900000000000006" width="9" height="9" rx="1" fill="#2b6fb0"></rect><rect x="102.4" y="50.900000000000006" width="9" height="9" rx="1" fill="#c0473a"></rect><rect x="112.7" y="50.900000000000006" width="9" height="9" rx="1" fill="#2f8f4e"></rect><rect x="123" y="50.900000000000006" width="9" height="9" rx="1" fill="#c98a1a"></rect></svg>