<?xml version="1.0"?>
<svg viewBox="0 0 132 78" data-gen="umap" xmlns="http://www.w3.org/2000/svg" width="264" height="156"><g id="axL" stroke="#ccbfa4" fill="none" stroke-width="1.3" stroke-linecap="round"><path d="M16 12V70H124"></path><path d="M16 22H13 M16 34H13 M16 46H13 M16 58H13"></path><path d="M40 70V73 M64 70V73 M88 70V73 M112 70V73"></path></g><circle cx="38.43693309056107" cy="29.872350858757272" r="2.4" fill="#2ea579" fill-opacity="0.72"></circle><circle cx="42.6566305924207" cy="26.130549578927457" r="2.4" fill="#2ea579" fill-opacity="0.72"></circle><circle cx="41.66172632644884" cy="26.74284600489773" r="2.4" fill="#2ea579" fill-opacity="0.72"></circle><circle cx="38.79948087630328" cy="28.579939000308514" r="2.4" fill="#2ea579" fill-opacity="0.72"></circle><circle cx="38.56667329161428" cy="27.364711196394637" r="2.4" fill="#2ea579" fill-opacity="0.72"></circle><circle cx="42.26059338077903" cy="29.45127785508521" r="2.4" fill="#2ea579" fill-opacity="0.72"></circle><circle cx="36.304875559173524" cy="28.062894283328205" r="2.4" fill="#2ea579" fill-opacity="0.72"></circle><circle cx="40.64895737764891" cy="27.60303275147453" r="2.4" fill="#2ea579" fill-opacity="0.72"></circle><circle cx="58.4501730814809" cy="57.389761311002076" r="2.4" fill="#7754bf" fill-opacity="0.72"></circle><circle cx="60.628484270884655" cy="52.79502242710441" r="2.4" fill="#7754bf" fill-opacity="0.72"></circle><circle cx="52.065784606849775" cy="53.12201908347197" r="2.4" fill="#7754bf" fill-opacity="0.72"></circle><circle cx="57.42036918271333" cy="53.94210594962351" r="2.4" fill="#7754bf" fill-opacity="0.72"></circle><circle cx="54.49576198856812" cy="57.471759179839864" r="2.4" fill="#7754bf" fill-opacity="0.72"></circle><circle cx="60.21780275402125" cy="53.7480835467577" r="2.4" fill="#7754bf" fill-opacity="0.72"></circle><circle cx="61.51463037193753" cy="58.800404760055244" r="2.4" fill="#7754bf" fill-opacity="0.72"></circle><circle cx="60.58731768419966" cy="57.91554457647726" r="2.4" fill="#7754bf" fill-opacity="0.72"></circle><circle cx="92.07396896579303" cy="34.513797871535644" r="2.4" fill="#2b6fb0" fill-opacity="0.72"></circle><circle cx="91.12359231791925" cy="34.73703965637833" r="2.4" fill="#2b6fb0" fill-opacity="0.72"></circle><circle cx="88.70076282776427" cy="33.3912022432778" r="2.4" fill="#2b6fb0" fill-opacity="0.72"></circle><circle cx="94.04352687112987" cy="33.42417179932818" r="2.4" fill="#2b6fb0" fill-opacity="0.72"></circle><circle cx="93.74201119202189" cy="32.473169127246365" r="2.4" fill="#2b6fb0" fill-opacity="0.72"></circle><circle cx="87.40522910782602" cy="35.82630971656181" r="2.4" fill="#2b6fb0" fill-opacity="0.72"></circle><circle cx="93.91239294537809" cy="33.43456583889201" r="2.4" fill="#2b6fb0" fill-opacity="0.72"></circle><circle cx="90.5777969105402" cy="31.921467430423945" r="2.4" fill="#2b6fb0" fill-opacity="0.72"></circle><circle cx="98.88307735871058" cy="55.50541021581739" r="2.4" fill="#c98a1a" fill-opacity="0.72"></circle><circle cx="96.20010718225967" cy="59.694228486157954" r="2.4" fill="#c98a1a" fill-opacity="0.72"></circle><circle cx="101.17853084625676" cy="60.91256492957473" r="2.4" fill="#c98a1a" fill-opacity="0.72"></circle><circle cx="100.45635498128831" cy="55.894848447758704" r="2.4" fill="#c98a1a" fill-opacity="0.72"></circle><circle cx="100.56498933187686" cy="61.83274455904029" r="2.4" fill="#c98a1a" fill-opacity="0.72"></circle><circle cx="96.90838395094033" cy="57.810540206963196" r="2.4" fill="#c98a1a" fill-opacity="0.72"></circle><circle cx="98.32626130036078" cy="55.48100338736549" r="2.4" fill="#c98a1a" fill-opacity="0.72"></circle><circle cx="103.01161570916884" cy="58.117355830734596" r="2.4" fill="#c98a1a" fill-opacity="0.72"></circle></svg>