<?xml version="1.0"?>
<svg viewBox="0 0 132 78" data-gen="qdot" xmlns="http://www.w3.org/2000/svg" width="264" height="156"><g id="axB" stroke="#cdb6a6" fill="none" stroke-width="1.3" stroke-linecap="round"><path d="M16 70H124"></path><path d="M40 70V73 M64 70V73 M88 70V73 M112 70V73"></path></g><circle cx="24" cy="61" r="3" fill="#b07a5a"></circle><circle cx="38" cy="61" r="3" fill="#b07a5a"></circle><circle cx="38" cy="54" r="3" fill="#b07a5a"></circle><circle cx="52" cy="61" r="3" fill="#b07a5a"></circle><circle cx="52" cy="54" r="3" fill="#b07a5a"></circle><circle cx="52" cy="47" r="3" fill="#b07a5a"></circle><circle cx="52" cy="40" r="3" fill="#b07a5a"></circle><circle cx="66" cy="61" r="3" fill="#b07a5a"></circle><circle cx="66" cy="54" r="3" fill="#b07a5a"></circle><circle cx="66" cy="47" r="3" fill="#b07a5a"></circle><circle cx="66" cy="40" r="3" fill="#b07a5a"></circle><circle cx="66" cy="33" r="3" fill="#b07a5a"></circle><circle cx="66" cy="26" r="3" fill="#b07a5a"></circle><circle cx="80" cy="61" r="3" fill="#b07a5a"></circle><circle cx="80" cy="54" r="3" fill="#b07a5a"></circle><circle cx="80" cy="47" r="3" fill="#b07a5a"></circle><circle cx="80" cy="40" r="3" fill="#b07a5a"></circle><circle cx="80" cy="33" r="3" fill="#b07a5a"></circle><circle cx="94" cy="61" r="3" fill="#b07a5a"></circle><circle cx="94" cy="54" r="3" fill="#b07a5a"></circle><circle cx="94" cy="47" r="3" fill="#b07a5a"></circle><circle cx="108" cy="61" r="3" fill="#b07a5a"></circle></svg>