<?xml version="1.0"?>
<svg viewBox="0 0 132 78" data-gen="sina" xmlns="http://www.w3.org/2000/svg" width="264" height="156"><g id="axL" stroke="#aabbd0" fill="none" stroke-width="1.3" stroke-linecap="round"><path d="M16 12V70H124"></path><path d="M16 22H13 M16 34H13 M16 46H13 M16 58H13"></path><path d="M40 70V73 M64 70V73 M88 70V73 M112 70V73"></path></g><circle cx="46.98084899016838" cy="49.60610482562333" r="2.1" fill-opacity="0.8" fill="#6f9fcf"></circle><circle cx="36.64609301383298" cy="25.27170200459659" r="2.1" fill-opacity="0.8" fill="#6f9fcf"></circle><circle cx="39.18898609836376" cy="64.10432595387101" r="2.1" fill-opacity="0.8" fill="#6f9fcf"></circle><circle cx="43.48386884194835" cy="35.11651756707579" r="2.1" fill-opacity="0.8" fill="#6f9fcf"></circle><circle cx="40.36406155205535" cy="62.860297648236156" r="2.1" fill-opacity="0.8" fill="#6f9fcf"></circle><circle cx="37.1783780785483" cy="52.21092704683542" r="2.1" fill-opacity="0.8" fill="#6f9fcf"></circle><circle cx="40.003739415408724" cy="26.48621325660497" r="2.1" fill-opacity="0.8" fill="#6f9fcf"></circle><circle cx="72.09073422707444" cy="31.693597997538745" r="2.1" fill-opacity="0.8" fill="#6f9fcf"></circle><circle cx="75.72614638661577" cy="43.575983420945704" r="2.1" fill-opacity="0.8" fill="#6f9fcf"></circle><circle cx="64.60063677520085" cy="50.65692499652505" r="2.1" fill-opacity="0.8" fill="#6f9fcf"></circle><circle cx="63.71476881586765" cy="60.62056091800332" r="2.1" fill-opacity="0.8" fill="#6f9fcf"></circle><circle cx="62.891791548659455" cy="44.74729272630066" r="2.1" fill-opacity="0.8" fill="#6f9fcf"></circle><circle cx="69.67607860481145" cy="38.207208442501724" r="2.1" fill-opacity="0.8" fill="#6f9fcf"></circle><circle cx="62.7213268380902" cy="48.29758273437619" r="2.1" fill-opacity="0.8" fill="#6f9fcf"></circle><circle cx="88.48665939213231" cy="50.292674200609326" r="2.1" fill-opacity="0.8" fill="#6f9fcf"></circle><circle cx="95.41433938719993" cy="65.00203267298639" r="2.1" fill-opacity="0.8" fill="#6f9fcf"></circle><circle cx="94.22202324689816" cy="47.31457328796387" r="2.1" fill-opacity="0.8" fill="#6f9fcf"></circle><circle cx="93.07800927443913" cy="39.898817693814635" r="2.1" fill-opacity="0.8" fill="#6f9fcf"></circle><circle cx="95.44689891063005" cy="43.09278931096196" r="2.1" fill-opacity="0.8" fill="#6f9fcf"></circle><circle cx="91.79569293796133" cy="51.42995974235237" r="2.1" fill-opacity="0.8" fill="#6f9fcf"></circle><circle cx="96.04353796762108" cy="36.31167543306947" r="2.1" fill-opacity="0.8" fill="#6f9fcf"></circle></svg>