<?xml version="1.0"?>
<svg viewBox="0 0 132 78" data-gen="shap" xmlns="http://www.w3.org/2000/svg" width="264" height="156"><line x1="70" y1="12" x2="70" y2="70" stroke="#c2c2ca" fill="none" stroke-width="1.3" stroke-linecap="round"></line><circle cx="66.30547821405344" cy="24.28458249475807" r="1.9" fill="rgb(107,94,125)" fill-opacity="0.85"></circle><circle cx="74.50055841519497" cy="22.203548478893936" r="1.9" fill="rgb(130,88,107)" fill-opacity="0.85"></circle><circle cx="65.0081167970784" cy="20.60154522699304" r="1.9" fill="rgb(103,95,128)" fill-opacity="0.85"></circle><circle cx="80.41374918376096" cy="21.022686178795993" r="1.9" fill="rgb(147,83,93)" fill-opacity="0.85"></circle><circle cx="66.7313996127341" cy="21.34172823210247" r="1.9" fill="rgb(108,94,124)" fill-opacity="0.85"></circle><circle cx="70.73311513615772" cy="19.870794782647863" r="1.9" fill="rgb(120,90,115)" fill-opacity="0.85"></circle><circle cx="74.99091266002506" cy="21.5339565561153" r="1.9" fill="rgb(132,87,106)" fill-opacity="0.85"></circle><circle cx="69.60825152113102" cy="20.75288866343908" r="1.9" fill="rgb(116,91,118)" fill-opacity="0.85"></circle><circle cx="75.34322071820498" cy="24.468036956852302" r="1.9" fill="rgb(133,87,105)" fill-opacity="0.85"></circle><circle cx="63.568131466628984" cy="21.51136869727634" r="1.9" fill="rgb(99,96,132)" fill-opacity="0.85"></circle><circle cx="69.1005938691087" cy="23.337009253911674" r="1.9" fill="rgb(115,92,119)" fill-opacity="0.85"></circle><circle cx="68.99062895565294" cy="20.636455102823675" r="1.9" fill="rgb(115,92,119)" fill-opacity="0.85"></circle><circle cx="68.96788515383378" cy="22.62714462983422" r="1.9" fill="rgb(115,92,119)" fill-opacity="0.85"></circle><circle cx="67.95256780972704" cy="22.992378204828128" r="1.9" fill="rgb(112,93,122)" fill-opacity="0.85"></circle><circle cx="79.5582561371848" cy="20.296575663844123" r="1.9" fill="rgb(145,84,95)" fill-opacity="0.85"></circle><circle cx="69.26512723206542" cy="33.58694885857403" r="1.9" fill="rgb(115,92,119)" fill-opacity="0.85"></circle><circle cx="60.28946572029963" cy="35.61672036186792" r="1.9" fill="rgb(90,98,139)" fill-opacity="0.85"></circle><circle cx="65.10070633119904" cy="32.759209984214976" r="1.9" fill="rgb(103,95,128)" fill-opacity="0.85"></circle><circle cx="65.26861710823141" cy="35.67181963706389" r="1.9" fill="rgb(104,95,128)" fill-opacity="0.85"></circle><circle cx="70.00844977563247" cy="32.64944857102819" r="1.9" fill="rgb(118,91,117)" fill-opacity="0.85"></circle><circle cx="72.64916652371176" cy="34.970483193174005" r="1.9" fill="rgb(125,89,111)" fill-opacity="0.85"></circle><circle cx="71.92895948165096" cy="35.26376144844107" r="1.9" fill="rgb(123,90,113)" fill-opacity="0.85"></circle><circle cx="74.03486497933045" cy="33.87999446829781" r="1.9" fill="rgb(129,88,108)" fill-opacity="0.85"></circle><circle cx="73.23964363592677" cy="36.532514207065105" r="1.9" fill="rgb(127,89,110)" fill-opacity="0.85"></circle><circle cx="74.2337925741449" cy="34.31517529301345" r="1.9" fill="rgb(130,88,107)" fill-opacity="0.85"></circle><circle cx="78.82052648812532" cy="34.131655608071014" r="1.9" fill="rgb(143,84,97)" fill-opacity="0.85"></circle><circle cx="68.37724331836216" cy="34.105388070456684" r="1.9" fill="rgb(113,92,121)" fill-opacity="0.85"></circle><circle cx="66.91195615660399" cy="36.864452643785626" r="1.9" fill="rgb(109,93,124)" fill-opacity="0.85"></circle><circle cx="71.32667138148099" cy="37.237188699655235" r="1.9" fill="rgb(121,90,114)" fill-opacity="0.85"></circle><circle cx="61.56845998996869" cy="34.13372638751753" r="1.9" fill="rgb(93,97,136)" fill-opacity="0.85"></circle><circle cx="69.57703543524258" cy="50.05737006268464" r="1.9" fill="rgb(116,91,118)" fill-opacity="0.85"></circle><circle cx="71.55449850182049" cy="46.059312247205526" r="1.9" fill="rgb(122,90,113)" fill-opacity="0.85"></circle><circle cx="72.05874049966224" cy="50.17476002057083" r="1.9" fill="rgb(123,89,112)" fill-opacity="0.85"></circle><circle cx="61.949333757860586" cy="50.43178180302493" r="1.9" fill="rgb(94,97,135)" fill-opacity="0.85"></circle><circle cx="65.4169816148933" cy="49.795242672087625" r="1.9" fill="rgb(104,95,127)" fill-opacity="0.85"></circle><circle cx="70.56587046536151" cy="48.74210291262716" r="1.9" fill="rgb(119,91,116)" fill-opacity="0.85"></circle><circle cx="69.26493559055962" cy="50.47807093663141" r="1.9" fill="rgb(115,92,119)" fill-opacity="0.85"></circle><circle cx="62.91105221142061" cy="50.33854098711163" r="1.9" fill="rgb(97,96,133)" fill-opacity="0.85"></circle><circle cx="65.33467692881823" cy="45.541432755533606" r="1.9" fill="rgb(104,95,128)" fill-opacity="0.85"></circle><circle cx="71.9896017917199" cy="46.27182074659504" r="1.9" fill="rgb(123,89,112)" fill-opacity="0.85"></circle><circle cx="65.50921757903416" cy="47.45254471153021" r="1.9" fill="rgb(105,94,127)" fill-opacity="0.85"></circle><circle cx="72.45026072312612" cy="49.03264843695797" r="1.9" fill="rgb(125,89,111)" fill-opacity="0.85"></circle><circle cx="70.7842520500999" cy="50.42621502606198" r="1.9" fill="rgb(120,90,115)" fill-opacity="0.85"></circle><circle cx="67.93028505437542" cy="50.28564675548114" r="1.9" fill="rgb(112,93,122)" fill-opacity="0.85"></circle><circle cx="67.26330298208632" cy="47.06116099678911" r="1.9" fill="rgb(110,93,123)" fill-opacity="0.85"></circle><circle cx="72.28456131648272" cy="61.157161083770916" r="1.9" fill="rgb(124,89,112)" fill-opacity="0.85"></circle><circle cx="69.72019222192466" cy="61.428477784153074" r="1.9" fill="rgb(117,91,118)" fill-opacity="0.85"></circle><circle cx="68.2013725778088" cy="62.44189387676306" r="1.9" fill="rgb(112,92,121)" fill-opacity="0.85"></circle><circle cx="68.78273549117148" cy="58.88346703280695" r="1.9" fill="rgb(114,92,120)" fill-opacity="0.85"></circle><circle cx="68.43793139979243" cy="62.86656673089601" r="1.9" fill="rgb(113,92,121)" fill-opacity="0.85"></circle><circle cx="72.21863602567464" cy="61.324662359198555" r="1.9" fill="rgb(124,89,112)" fill-opacity="0.85"></circle><circle cx="73.53559327498078" cy="62.67186272679828" r="1.9" fill="rgb(128,88,109)" fill-opacity="0.85"></circle><circle cx="67.89759427495301" cy="60.25708440714516" r="1.9" fill="rgb(111,93,122)" fill-opacity="0.85"></circle><circle cx="67.62680611293763" cy="59.86654229136184" r="1.9" fill="rgb(111,93,122)" fill-opacity="0.85"></circle><circle cx="69.32614936679602" cy="63.27410120307468" r="1.9" fill="rgb(116,92,119)" fill-opacity="0.85"></circle><circle cx="70.12106984481215" cy="62.81338983238675" r="1.9" fill="rgb(118,91,117)" fill-opacity="0.85"></circle><circle cx="72.0479191550985" cy="62.288079377263784" r="1.9" fill="rgb(123,89,112)" fill-opacity="0.85"></circle><circle cx="70.92514480184764" cy="60.42817094968632" r="1.9" fill="rgb(120,90,115)" fill-opacity="0.85"></circle><circle cx="71.47664500866085" cy="59.17236282164231" r="1.9" fill="rgb(122,90,114)" fill-opacity="0.85"></circle><circle cx="69.40843333303928" cy="62.53452003723942" r="1.9" fill="rgb(116,91,118)" fill-opacity="0.85"></circle></svg>